HIERARCHY
ROOT Hips
{
	OFFSET 0.000000 100.481300 0.000000
	CHANNELS 6 Xposition Yposition Zposition Xrotation Yrotation Zrotation 
	JOINT Spine
	{
		OFFSET -0.279200 12.230698 -2.892100
		CHANNELS 3 Xrotation Yrotation Zrotation
		JOINT Spine1
		{
			OFFSET -0.232667 10.192268 -1.242267
			CHANNELS 3 Xrotation Yrotation Zrotation
			JOINT Spine1_split
			{
				OFFSET -0.232667 10.192268 -1.242267
				CHANNELS 3 Xrotation Yrotation Zrotation
				JOINT Spine2
				{
					OFFSET -0.232667 10.192268 -1.242267
					CHANNELS 3 Xrotation Yrotation Zrotation
					JOINT Neck
					{
						OFFSET -0.418800 17.814194 8.416900
						CHANNELS 3 Xrotation Yrotation Zrotation
						JOINT Head
						{
							OFFSET 0.000000 7.031097 3.806800
							CHANNELS 3 Xrotation Yrotation Zrotation
							JOINT HeadTop_End
							{
								OFFSET 0.000000 24.646606 12.978600
								CHANNELS 3 Xrotation Yrotation Zrotation
								End Site
								{
									OFFSET 0.000000 0.000000 0.000000
								}
							}
						}
					}
					JOINT LeftShoulder
					{
						OFFSET 8.476499 7.247704 -3.868750
						CHANNELS 3 Xrotation Yrotation Zrotation
						JOINT LeftShoulder_split
						{
							OFFSET 8.476499 7.247704 -3.868750
							CHANNELS 3 Xrotation Yrotation Zrotation
							JOINT LeftArm
							{
								OFFSET 9.308998 -2.777710 0.208600
								CHANNELS 3 Xrotation Yrotation Zrotation
								JOINT LeftForeArm
								{
									OFFSET 29.972298 0.000000 0.000000
									CHANNELS 3 Xrotation Yrotation Zrotation
									JOINT LeftHand
									{
										OFFSET 26.026505 0.000000 0.000000
										CHANNELS 3 Xrotation Yrotation Zrotation
										JOINT LeftHandThumb1
										{
											OFFSET 12.240501 -7.147949 9.207150
											CHANNELS 3 Xrotation Yrotation Zrotation
											JOINT LeftHandThumb2
											{
												OFFSET 4.138618 -2.389435 2.389433
												CHANNELS 3 Xrotation Yrotation Zrotation
												JOINT LeftHandThumb3
												{
													OFFSET 2.726913 -1.574387 1.574386
													CHANNELS 3 Xrotation Yrotation Zrotation
													JOINT LeftHandThumb4
													{
														OFFSET 3.941010 -2.275345 2.275342
														CHANNELS 3 Xrotation Yrotation Zrotation
														End Site
														{
															OFFSET 0.000000 0.000000 0.000000
														}
													}
												}
											}
										}
										JOINT LeftHandIndex1
										{
											OFFSET 24.424698 -1.985611 5.953459
											CHANNELS 3 Xrotation Yrotation Zrotation
											JOINT LeftHandIndex2
											{
												OFFSET 6.426697 0.000000 0.000000
												CHANNELS 3 Xrotation Yrotation Zrotation
												JOINT LeftHandIndex3
												{
													OFFSET 5.337898 0.000000 0.000000
													CHANNELS 3 Xrotation Yrotation Zrotation
													JOINT LeftHandIndex4
													{
														OFFSET 4.409401 0.000000 0.000000
														CHANNELS 3 Xrotation Yrotation Zrotation
														End Site
														{
															OFFSET 0.000000 0.000000 0.000000
														}
													}
												}
											}
										}
										JOINT LeftHandMiddle1
										{
											OFFSET 23.810104 0.000000 0.000000
											CHANNELS 3 Xrotation Yrotation Zrotation
											JOINT LeftHandMiddle2
											{
												OFFSET 7.176498 0.000000 0.000000
												CHANNELS 3 Xrotation Yrotation Zrotation
												JOINT LeftHandMiddle3
												{
													OFFSET 6.774902 0.000000 0.000000
													CHANNELS 3 Xrotation Yrotation Zrotation
													JOINT LeftHandMiddle4
													{
														OFFSET 5.403328 0.000000 0.000000
														CHANNELS 3 Xrotation Yrotation Zrotation
														End Site
														{
															OFFSET 0.000000 0.000000 0.000000
														}
													}
												}
											}
										}
										JOINT LeftHandRing1
										{
											OFFSET 22.908401 -0.839279 -6.020567
											CHANNELS 3 Xrotation Yrotation Zrotation
											JOINT LeftHandRing2
											{
												OFFSET 6.337502 0.000000 0.000000
												CHANNELS 3 Xrotation Yrotation Zrotation
												JOINT LeftHandRing3
												{
													OFFSET 5.779297 0.000000 0.000000
													CHANNELS 3 Xrotation Yrotation Zrotation
													JOINT LeftHandRing4
													{
														OFFSET 4.965698 0.000000 0.000000
														CHANNELS 3 Xrotation Yrotation Zrotation
														End Site
														{
															OFFSET 0.000000 0.000000 0.000000
														}
													}
												}
											}
										}
										JOINT LeftHandPinky1
										{
											OFFSET 20.037003 -1.530319 -10.950146
											CHANNELS 3 Xrotation Yrotation Zrotation
											JOINT LeftHandPinky2
											{
												OFFSET 5.254700 0.000000 0.000000
												CHANNELS 3 Xrotation Yrotation Zrotation
												JOINT LeftHandPinky3
												{
													OFFSET 4.810204 0.000000 0.000000
													CHANNELS 3 Xrotation Yrotation Zrotation
													JOINT LeftHandPinky4
													{
														OFFSET 3.647202 0.000000 0.000000
														CHANNELS 3 Xrotation Yrotation Zrotation
														End Site
														{
															OFFSET 0.000000 0.000000 0.000000
														}
													}
												}
											}
										}
									}
								}
							}
						}
					}
					JOINT RightShoulder
					{
						OFFSET -7.570500 7.247704 -3.868750
						CHANNELS 3 Xrotation Yrotation Zrotation
						JOINT RightShoulder_split
						{
							OFFSET -7.570500 7.247704 -3.868750
							CHANNELS 3 Xrotation Yrotation Zrotation
							JOINT RightArm
							{
								OFFSET -9.308998 -2.777710 0.208500
								CHANNELS 3 Xrotation Yrotation Zrotation
								JOINT RightForeArm
								{
									OFFSET -29.972300 0.000000 0.000000
									CHANNELS 3 Xrotation Yrotation Zrotation
									JOINT RightHand
									{
										OFFSET -26.026505 0.000000 0.000000
										CHANNELS 3 Xrotation Yrotation Zrotation
										JOINT RightHandThumb1
										{
											OFFSET -12.240601 -7.148026 9.207092
											CHANNELS 3 Xrotation Yrotation Zrotation
											JOINT RightHandThumb2
											{
												OFFSET -4.138618 -2.389435 2.389433
												CHANNELS 3 Xrotation Yrotation Zrotation
												JOINT RightHandThumb3
												{
													OFFSET -2.726974 -1.574417 1.574421
													CHANNELS 3 Xrotation Yrotation Zrotation
													JOINT RightHandThumb4
													{
														OFFSET -3.941010 -2.275345 2.275343
														CHANNELS 3 Xrotation Yrotation Zrotation
														End Site
														{
															OFFSET 0.000000 0.000000 0.000000
														}
													}
												}
											}
										}
										JOINT RightHandIndex1
										{
											OFFSET -24.424698 -1.985657 5.953444
											CHANNELS 3 Xrotation Yrotation Zrotation
											JOINT RightHandIndex2
											{
												OFFSET -6.426697 0.000000 0.000000
												CHANNELS 3 Xrotation Yrotation Zrotation
												JOINT RightHandIndex3
												{
													OFFSET -5.337898 0.000000 0.000000
													CHANNELS 3 Xrotation Yrotation Zrotation
													JOINT RightHandIndex4
													{
														OFFSET -4.409401 0.000000 0.000000
														CHANNELS 3 Xrotation Yrotation Zrotation
														End Site
														{
															OFFSET 0.000000 0.000000 0.000000
														}
													}
												}
											}
										}
										JOINT RightHandMiddle1
										{
											OFFSET -23.810097 0.000000 0.000000
											CHANNELS 3 Xrotation Yrotation Zrotation
											JOINT RightHandMiddle2
											{
												OFFSET -7.176498 0.000000 0.000000
												CHANNELS 3 Xrotation Yrotation Zrotation
												JOINT RightHandMiddle3
												{
													OFFSET -6.774902 0.000000 0.000000
													CHANNELS 3 Xrotation Yrotation Zrotation
													JOINT RightHandMiddle4
													{
														OFFSET -5.403328 0.000000 0.000000
														CHANNELS 3 Xrotation Yrotation Zrotation
														End Site
														{
															OFFSET 0.000000 0.000000 0.000000
														}
													}
												}
											}
										}
										JOINT RightHandRing1
										{
											OFFSET -22.908302 -0.839325 -6.020576
											CHANNELS 3 Xrotation Yrotation Zrotation
											JOINT RightHandRing2
											{
												OFFSET -6.337502 0.000000 0.000000
												CHANNELS 3 Xrotation Yrotation Zrotation
												JOINT RightHandRing3
												{
													OFFSET -5.779297 0.000000 0.000000
													CHANNELS 3 Xrotation Yrotation Zrotation
													JOINT RightHandRing4
													{
														OFFSET -4.965698 0.000000 0.000000
														CHANNELS 3 Xrotation Yrotation Zrotation
														End Site
														{
															OFFSET 0.000000 0.000000 0.000000
														}
													}
												}
											}
										}
										JOINT RightHandPinky1
										{
											OFFSET -20.037003 -1.530334 -10.950259
											CHANNELS 3 Xrotation Yrotation Zrotation
											JOINT RightHandPinky2
											{
												OFFSET -5.254700 0.000000 0.000000
												CHANNELS 3 Xrotation Yrotation Zrotation
												JOINT RightHandPinky3
												{
													OFFSET -4.810204 0.000000 0.000000
													CHANNELS 3 Xrotation Yrotation Zrotation
													JOINT RightHandPinky4
													{
														OFFSET -3.647202 0.000000 0.000000
														CHANNELS 3 Xrotation Yrotation Zrotation
														End Site
														{
															OFFSET 0.000000 0.000000 0.000000
														}
													}
												}
											}
										}
									}
								}
							}
						}
					}
				}
			}
		}
	}
	JOINT LeftUpLeg
	{
		OFFSET 15.427100 -6.655098 0.678600
		CHANNELS 3 Xrotation Yrotation Zrotation
		JOINT LeftLeg
		{
			OFFSET 4.081073 -39.591068 13.024000
			CHANNELS 3 Xrotation Yrotation Zrotation
			JOINT LeftFoot
			{
				OFFSET -4.081074 -37.707932 -15.979700
				CHANNELS 3 Xrotation Yrotation Zrotation
				JOINT LeftToeBase
				{
					OFFSET 5.346399 -15.068900 20.645000
					CHANNELS 3 Xrotation Yrotation Zrotation
					JOINT LeftToe_End
					{
						OFFSET 2.754700 0.931300 11.300900
						CHANNELS 3 Xrotation Yrotation Zrotation
						End Site
						{
							OFFSET 0.000000 0.000000 0.000000
						}
					}
				}
			}
		}
	}
	JOINT RightUpLeg
	{
		OFFSET -15.569500 -6.655098 0.678600
		CHANNELS 3 Xrotation Yrotation Zrotation
		JOINT RightLeg
		{
			OFFSET -4.081825 -39.591045 13.023800
			CHANNELS 3 Xrotation Yrotation Zrotation
			JOINT RightFoot
			{
				OFFSET 4.081824 -37.707954 -15.979600
				CHANNELS 3 Xrotation Yrotation Zrotation
				JOINT RightToeBase
				{
					OFFSET -5.346400 -15.068900 20.645000
					CHANNELS 3 Xrotation Yrotation Zrotation
					JOINT RightToe_End
					{
						OFFSET -2.754700 0.931300 11.300900
						CHANNELS 3 Xrotation Yrotation Zrotation
						End Site
						{
							OFFSET 0.000000 0.000000 0.000000
						}
					}
				}
			}
		}
	}
}
MOTION
Frames: 4
Frame Time: 0.016667
-6.908565 99.740967 190.123550 19.874589 9.264954 -1.631841 -2.287086 -1.061564 0.771377 -4.594416 -1.061328 0.101277 0.000000 0.000000 0.000000 -4.594413 -1.061324 0.101277 -4.837208 3.021062 -5.623374 -32.648280 -0.269691 4.329762 -0.000002 0.000001 0.000001 10.044630 0.256262 32.051223 0.000000 0.000000 0.000000 -48.561726 -10.210830 11.799411 -38.609881 -41.548509 -5.423209 -8.226028 -2.522771 4.213901 -23.472536 9.007677 3.988081 -11.828219 8.162159 13.621965 0.000002 0.000017 0.000009 0.000002 0.000000 0.000000 0.517235 -9.570581 -64.785499 -8.375110 -2.932947 -78.721578 -0.000000 -0.000000 0.000000 -0.000000 -0.000000 -0.000001 -5.938103 -5.207425 -62.769623 -4.744678 -4.396644 -66.090092 -0.000002 -0.000003 -0.000003 -0.000000 -0.000001 -0.000001 -10.844898 5.489508 -65.803887 -0.072867 -6.647467 -74.360024 0.000002 -0.000003 -0.000000 0.000001 0.000000 0.000001 -15.557603 3.779177 -61.887770 0.800057 -8.229587 -69.703003 -0.000002 0.000001 0.000001 -0.000001 -0.000001 -0.000001 -8.323178 -24.135442 -40.312681 0.000000 0.000000 0.000000 -89.460363 26.675444 38.968268 -28.899575 50.290867 -7.128695 27.282127 -4.258685 14.891576 -17.327362 6.468802 -26.575885 3.068503 -20.322316 1.170421 -0.000004 0.000005 -0.000006 0.000002 0.000000 0.000000 -7.162308 5.305834 74.913119 -5.538922 0.850721 81.608029 0.000001 0.000002 -0.000011 0.000001 -0.000000 -0.000000 -11.692868 2.849403 77.860284 -5.590886 1.103049 82.945380 -0.000000 -0.000005 -0.000001 -0.000000 -0.000000 -0.000000 -13.276865 -6.839415 73.034885 -0.147259 7.076623 77.106511 -0.000000 0.000001 -0.000001 -0.000002 0.000000 -0.000000 -17.725133 -11.413756 72.297641 1.238886 11.805319 72.406016 0.000000 0.000000 -0.000000 0.000000 0.000000 -0.000001 -13.201629 8.998522 15.940408 47.010525 14.750576 -2.391602 12.410157 -0.101513 -0.277988 -0.014930 -0.021881 0.065440 -0.000002 -0.000000 0.000001 -62.059727 -27.455269 -11.147936 40.922187 0.357186 -13.809527 33.199350 2.930343 0.924750 -4.299789 2.840518 -1.252935 0.000001 0.000000 -0.000000 
-7.049795 97.596603 194.709198 17.738561 9.942648 -1.576756 -2.105993 -1.185026 0.545586 -4.226092 -1.236036 0.160241 0.000000 0.000000 0.000000 -4.226094 -1.236037 0.160240 -3.390466 3.136789 -5.040333 -32.061403 -0.495307 4.132347 0.000001 0.000000 -0.000000 9.560696 1.178736 31.958599 0.000000 0.000000 0.000000 -47.982147 -11.494729 12.850399 -37.736191 -39.139573 -4.480674 -9.326628 -3.180901 7.039133 -23.461929 9.089822 3.969068 -11.828211 8.162143 13.621974 0.000002 0.000018 0.000009 0.000000 -0.000001 0.000000 0.903532 -9.378180 -63.393349 -8.389063 -2.928313 -78.861207 -0.000000 -0.000000 -0.000002 -0.000001 -0.000000 0.000000 -5.628305 -5.175356 -61.629992 -4.775314 -4.405102 -66.429074 -0.000001 -0.000004 -0.000005 0.000000 -0.000000 -0.000003 -10.813721 5.370621 -64.788449 -0.084346 -6.654556 -74.482803 0.000002 -0.000003 -0.000002 0.000001 -0.000000 -0.000001 -15.534572 3.805836 -61.859890 0.782683 -8.240930 -69.919718 -0.000000 0.000000 0.000003 -0.000002 0.000001 -0.000002 -8.892186 -24.277767 -41.378232 0.000000 0.000000 0.000000 -86.632719 27.564753 36.099411 -30.016622 48.103585 -7.287908 26.156968 -4.467107 12.106703 -17.327355 6.468819 -26.575902 3.068491 -20.322340 1.170432 -0.000001 0.000006 -0.000006 -0.000001 -0.000001 -0.000001 -7.160181 4.909974 76.768867 -5.512926 0.851710 81.188526 0.000001 0.000002 -0.000011 0.000001 0.000000 -0.000000 -11.756420 2.715998 78.851296 -5.590527 1.102824 82.959935 0.000002 -0.000004 -0.000001 -0.000001 0.000000 -0.000000 -13.231553 -7.033029 74.164448 -0.159617 7.085939 77.218813 0.000001 0.000001 -0.000001 0.000001 0.000001 -0.000001 -17.608895 -11.756197 74.042871 1.242307 11.802455 72.382964 0.000002 0.000000 -0.000001 -0.000002 0.000001 -0.000000 -11.764487 7.178021 15.863924 46.004541 16.180090 -3.754660 11.410032 -0.304455 -1.040261 -0.009425 -0.014146 0.065443 -0.000000 -0.000000 0.000001 -62.943110 -26.952567 -11.364936 42.590836 0.041481 -14.080520 32.374861 2.040952 -0.359041 -5.035426 3.247105 -0.101482 0.000000 -0.000000 0.000001 
-7.141593 95.298050 199.098602 15.563711 10.636306 -1.588642 -1.875278 -1.316585 0.401657 -3.758564 -1.458370 0.264352 0.000000 0.000000 0.000000 -3.758558 -1.458363 0.264352 -2.312996 3.118228 -4.492906 -31.180046 -0.574889 3.975778 -0.000001 -0.000001 0.000000 9.718429 1.273662 32.721927 0.000000 0.000000 0.000000 -47.199834 -10.995454 14.448394 -37.509336 -36.402969 -3.708630 -10.609614 -4.159288 8.444628 -23.450754 9.176034 3.949040 -11.828233 8.162148 13.621988 0.000005 0.000017 0.000010 -0.000002 -0.000001 -0.000001 1.276600 -9.117647 -62.457060 -8.382873 -2.929996 -78.798424 0.000000 -0.000000 0.000001 0.000001 0.000000 0.000001 -5.280012 -5.045777 -60.690807 -4.795419 -4.410527 -66.652449 -0.000002 -0.000003 -0.000003 0.000000 -0.000000 -0.000002 -10.792170 5.278063 -63.907006 -0.092890 -6.659762 -74.573508 0.000002 -0.000003 0.000001 0.000001 -0.000001 0.000000 -15.475095 3.968978 -62.080628 0.761139 -8.254703 -70.188813 -0.000000 -0.000000 0.000000 -0.000000 -0.000000 0.000000 -8.350551 -23.530582 -42.083196 0.000000 0.000000 0.000000 -83.150095 28.065876 30.864600 -31.664351 45.607454 -6.457771 24.627316 -4.700918 9.780973 -17.327355 6.468792 -26.575911 3.068498 -20.322325 1.170432 -0.000002 0.000006 -0.000005 -0.000002 -0.000001 -0.000001 -7.022630 4.477196 78.237672 -5.477279 0.852863 80.617597 0.000002 0.000002 -0.000011 -0.000000 0.000000 -0.000000 -11.748786 2.655330 79.261627 -5.590956 1.102362 83.000418 0.000002 -0.000005 -0.000000 0.000000 -0.000000 -0.000000 -13.176016 -7.192354 75.017416 -0.177998 7.099722 77.385394 -0.000001 -0.000001 -0.000001 -0.000001 0.000000 -0.000002 -17.476393 -12.103200 75.594013 1.245875 11.799145 72.352126 -0.000000 -0.000000 -0.000001 -0.000003 -0.000000 0.000000 -11.434001 4.782095 15.666425 46.413475 17.107382 -5.052594 9.658401 -0.508452 -2.361215 -2.225742 0.181330 -4.862837 -0.000003 0.000002 -0.000003 -63.859824 -26.480302 -11.436547 44.984517 -0.403082 -14.740264 31.053175 1.162723 -1.271165 -4.296410 2.698312 1.534591 -0.000002 -0.000001 -0.000000 
-7.196275 94.101974 203.300568 13.435590 11.289850 -1.701450 -1.569631 -1.412514 0.390388 -3.141674 -1.730182 0.476075 0.000000 0.000000 0.000000 -3.141672 -1.730182 0.476075 -2.080886 2.816534 -4.488244 -29.703588 -0.759589 4.181480 -0.000001 0.000001 0.000001 10.358786 0.430478 33.938643 0.000000 0.000000 0.000000 -46.303058 -6.882822 15.495949 -38.881863 -37.359502 -3.729814 -11.776484 -3.759851 8.715748 -23.439375 9.263870 3.928517 -11.828231 8.162095 13.621970 0.000001 0.000020 0.000011 0.000001 0.000001 0.000001 1.545923 -8.908097 -61.901082 -8.376372 -2.931808 -78.732697 0.000000 0.000000 0.000003 0.000000 -0.000000 0.000002 -5.021039 -4.932626 -60.084812 -4.812813 -4.415213 -66.846870 0.000000 -0.000003 0.000004 0.000000 0.000000 -0.000002 -10.776106 5.182471 -63.138979 -0.100364 -6.664254 -74.651324 0.000002 -0.000001 0.000001 -0.000001 0.000000 -0.000001 -15.429575 4.090036 -62.244491 0.743172 -8.265967 -70.408500 -0.000001 0.000002 0.000005 -0.000001 0.000000 -0.000001 -7.764606 -22.718970 -42.791104 0.000000 0.000000 0.000000 -79.909764 26.708362 26.192526 -32.094721 45.832823 -5.888931 22.708550 -5.865433 8.746426 -17.327355 6.468835 -26.575899 3.068468 -20.322268 1.170423 -0.000001 0.000005 -0.000006 -0.000001 0.000002 0.000000 -6.865591 4.152959 79.210298 -5.445864 0.853610 80.114738 0.000002 0.000002 -0.000012 -0.000000 -0.000000 -0.000001 -11.662136 2.647370 79.130036 -5.594071 1.101177 83.123983 0.000002 -0.000004 0.000000 -0.000001 0.000000 0.000000 -13.125736 -7.256939 75.195028 -0.202089 7.117650 77.603435 -0.000000 0.000000 -0.000001 0.000001 -0.000001 -0.000000 -17.379310 -12.303806 76.241468 1.231305 11.811453 72.469386 -0.000002 -0.000000 0.000001 0.000001 -0.000000 -0.000001 -12.424929 4.086496 14.806464 45.695079 16.816008 -4.756705 8.478500 -0.758388 -3.234077 -6.771097 1.955162 -16.162391 0.000001 0.000002 -0.000003 -63.232266 -26.383344 -11.679320 45.424808 -0.928378 -14.532028 30.197981 0.922009 -2.770396 -2.702338 1.490632 3.506510 0.000002 0.000000 -0.000001 
